<mxfile host="app.diagrams.net" agent="Mozilla/5.0 (Windows NT 10.0; Win64; x64) AppleWebKit/537.36 (KHTML, like Gecko) Chrome/134.0.0.0 Safari/537.36" version="26.1.3">
  <diagram name="Page-1" id="GFD5hJQQqDLKc9gmkZFv">
    <mxGraphModel dx="1687" dy="868" grid="1" gridSize="10" guides="1" tooltips="1" connect="1" arrows="1" fold="1" page="1" pageScale="1" pageWidth="850" pageHeight="1100" math="0" shadow="0">
      <root>
        <mxCell id="0" />
        <mxCell id="1" parent="0" />
        <mxCell id="fo3bom-SzsWDAHnflCSK-1" style="edgeStyle=orthogonalEdgeStyle;rounded=0;orthogonalLoop=1;jettySize=auto;html=1;entryX=0.5;entryY=0;entryDx=0;entryDy=0;" edge="1" parent="1" source="fo3bom-SzsWDAHnflCSK-2" target="fo3bom-SzsWDAHnflCSK-7">
          <mxGeometry relative="1" as="geometry" />
        </mxCell>
        <mxCell id="fo3bom-SzsWDAHnflCSK-2" value="" style="ellipse;whiteSpace=wrap;html=1;sketch=1;curveFitting=1;jiggle=2;fillColor=#d5e8d4;strokeColor=#82b366;" vertex="1" parent="1">
          <mxGeometry x="340" y="30" width="170" height="60" as="geometry" />
        </mxCell>
        <mxCell id="fo3bom-SzsWDAHnflCSK-3" value="" style="ellipse;whiteSpace=wrap;html=1;sketch=1;curveFitting=1;jiggle=2;fillColor=#f8cecc;strokeColor=#b85450;" vertex="1" parent="1">
          <mxGeometry x="340" y="790" width="170" height="60" as="geometry" />
        </mxCell>
        <mxCell id="fo3bom-SzsWDAHnflCSK-4" value="Start" style="text;html=1;align=center;verticalAlign=middle;resizable=0;points=[];autosize=1;strokeColor=none;fillColor=none;" vertex="1" parent="1">
          <mxGeometry x="400" y="45" width="50" height="30" as="geometry" />
        </mxCell>
        <mxCell id="fo3bom-SzsWDAHnflCSK-5" value="End" style="text;html=1;align=center;verticalAlign=middle;resizable=0;points=[];autosize=1;strokeColor=none;fillColor=none;" vertex="1" parent="1">
          <mxGeometry x="405" y="805" width="40" height="30" as="geometry" />
        </mxCell>
        <mxCell id="fo3bom-SzsWDAHnflCSK-6" style="edgeStyle=orthogonalEdgeStyle;rounded=0;orthogonalLoop=1;jettySize=auto;html=1;entryX=0.5;entryY=0;entryDx=0;entryDy=0;" edge="1" parent="1" source="fo3bom-SzsWDAHnflCSK-7" target="fo3bom-SzsWDAHnflCSK-10">
          <mxGeometry relative="1" as="geometry" />
        </mxCell>
        <mxCell id="fo3bom-SzsWDAHnflCSK-7" value="" style="shape=parallelogram;perimeter=parallelogramPerimeter;whiteSpace=wrap;html=1;fixedSize=1;shadow=0;sketch=1;curveFitting=1;jiggle=2;fillColor=#ffe6cc;strokeColor=#d79b00;" vertex="1" parent="1">
          <mxGeometry x="340" y="110" width="170" height="60" as="geometry" />
        </mxCell>
        <mxCell id="fo3bom-SzsWDAHnflCSK-8" value="input num_hours" style="text;html=1;align=center;verticalAlign=middle;resizable=0;points=[];autosize=1;strokeColor=none;fillColor=none;" vertex="1" parent="1">
          <mxGeometry x="370" y="125" width="110" height="30" as="geometry" />
        </mxCell>
        <mxCell id="fo3bom-SzsWDAHnflCSK-9" style="edgeStyle=orthogonalEdgeStyle;rounded=0;orthogonalLoop=1;jettySize=auto;html=1;entryX=1;entryY=0.5;entryDx=0;entryDy=0;" edge="1" parent="1" source="fo3bom-SzsWDAHnflCSK-10" target="fo3bom-SzsWDAHnflCSK-3">
          <mxGeometry relative="1" as="geometry">
            <mxPoint x="600" y="645" as="targetPoint" />
            <Array as="points">
              <mxPoint x="710" y="265" />
              <mxPoint x="710" y="820" />
            </Array>
          </mxGeometry>
        </mxCell>
        <mxCell id="fo3bom-SzsWDAHnflCSK-10" value="" style="rhombus;whiteSpace=wrap;html=1;sketch=1;curveFitting=1;jiggle=2;fillColor=#dae8fc;strokeColor=#6c8ebf;" vertex="1" parent="1">
          <mxGeometry x="360" y="200" width="130" height="130" as="geometry" />
        </mxCell>
        <mxCell id="fo3bom-SzsWDAHnflCSK-11" style="edgeStyle=orthogonalEdgeStyle;rounded=0;orthogonalLoop=1;jettySize=auto;html=1;entryX=0.5;entryY=0;entryDx=0;entryDy=0;" edge="1" parent="1" target="fo3bom-SzsWDAHnflCSK-16">
          <mxGeometry relative="1" as="geometry">
            <mxPoint x="360" y="265" as="sourcePoint" />
          </mxGeometry>
        </mxCell>
        <mxCell id="fo3bom-SzsWDAHnflCSK-12" value="num_hours = 0" style="text;html=1;align=center;verticalAlign=middle;resizable=0;points=[];autosize=1;strokeColor=none;fillColor=none;" vertex="1" parent="1">
          <mxGeometry x="375" y="250" width="100" height="30" as="geometry" />
        </mxCell>
        <mxCell id="fo3bom-SzsWDAHnflCSK-13" value="True" style="text;html=1;align=center;verticalAlign=middle;resizable=0;points=[];autosize=1;strokeColor=none;fillColor=none;" vertex="1" parent="1">
          <mxGeometry x="570" y="245" width="50" height="30" as="geometry" />
        </mxCell>
        <mxCell id="fo3bom-SzsWDAHnflCSK-14" value="False" style="text;html=1;align=center;verticalAlign=middle;resizable=0;points=[];autosize=1;strokeColor=none;fillColor=none;" vertex="1" parent="1">
          <mxGeometry x="270" y="245" width="50" height="30" as="geometry" />
        </mxCell>
        <mxCell id="fo3bom-SzsWDAHnflCSK-16" value="" style="shape=parallelogram;perimeter=parallelogramPerimeter;whiteSpace=wrap;html=1;fixedSize=1;shadow=0;sketch=1;curveFitting=1;jiggle=2;fillColor=#ffe6cc;strokeColor=#d79b00;" vertex="1" parent="1">
          <mxGeometry x="130" y="325" width="190" height="60" as="geometry" />
        </mxCell>
        <mxCell id="fo3bom-SzsWDAHnflCSK-17" value="input wholesale_cost" style="text;html=1;align=center;verticalAlign=middle;resizable=0;points=[];autosize=1;strokeColor=none;fillColor=none;" vertex="1" parent="1">
          <mxGeometry x="160" y="340" width="130" height="30" as="geometry" />
        </mxCell>
        <mxCell id="fo3bom-SzsWDAHnflCSK-21" style="edgeStyle=orthogonalEdgeStyle;rounded=0;orthogonalLoop=1;jettySize=auto;html=1;entryX=0.5;entryY=0;entryDx=0;entryDy=0;" edge="1" parent="1" source="fo3bom-SzsWDAHnflCSK-22">
          <mxGeometry relative="1" as="geometry">
            <mxPoint x="225" y="520" as="targetPoint" />
          </mxGeometry>
        </mxCell>
        <mxCell id="fo3bom-SzsWDAHnflCSK-22" value="" style="rounded=0;whiteSpace=wrap;html=1;sketch=1;curveFitting=1;jiggle=2;fillColor=#e1d5e7;strokeColor=#9673a6;" vertex="1" parent="1">
          <mxGeometry x="130" y="430" width="190" height="60" as="geometry" />
        </mxCell>
        <mxCell id="fo3bom-SzsWDAHnflCSK-23" value="labor_cost = 30 * num_hours" style="text;html=1;align=center;verticalAlign=middle;resizable=0;points=[];autosize=1;strokeColor=none;fillColor=none;" vertex="1" parent="1">
          <mxGeometry x="135" y="445" width="180" height="30" as="geometry" />
        </mxCell>
        <mxCell id="fo3bom-SzsWDAHnflCSK-24" style="edgeStyle=orthogonalEdgeStyle;rounded=0;orthogonalLoop=1;jettySize=auto;html=1;entryX=0.5;entryY=0;entryDx=0;entryDy=0;" edge="1" parent="1">
          <mxGeometry relative="1" as="geometry">
            <mxPoint x="225" y="580" as="sourcePoint" />
            <mxPoint x="225" y="610" as="targetPoint" />
          </mxGeometry>
        </mxCell>
        <mxCell id="fo3bom-SzsWDAHnflCSK-27" style="edgeStyle=orthogonalEdgeStyle;rounded=0;orthogonalLoop=1;jettySize=auto;html=1;entryX=0.5;entryY=0;entryDx=0;entryDy=0;" edge="1" parent="1" target="fo3bom-SzsWDAHnflCSK-31">
          <mxGeometry relative="1" as="geometry">
            <mxPoint x="225" y="670" as="sourcePoint" />
          </mxGeometry>
        </mxCell>
        <mxCell id="fo3bom-SzsWDAHnflCSK-44" style="edgeStyle=orthogonalEdgeStyle;rounded=0;orthogonalLoop=1;jettySize=auto;html=1;entryX=0.5;entryY=0;entryDx=0;entryDy=0;" edge="1" parent="1" source="fo3bom-SzsWDAHnflCSK-31" target="fo3bom-SzsWDAHnflCSK-3">
          <mxGeometry relative="1" as="geometry" />
        </mxCell>
        <mxCell id="fo3bom-SzsWDAHnflCSK-31" value="" style="shape=parallelogram;perimeter=parallelogramPerimeter;whiteSpace=wrap;html=1;fixedSize=1;shadow=0;sketch=1;curveFitting=1;jiggle=2;fillColor=#fff2cc;strokeColor=#d6b656;" vertex="1" parent="1">
          <mxGeometry x="115" y="700" width="220" height="60" as="geometry" />
        </mxCell>
        <mxCell id="fo3bom-SzsWDAHnflCSK-32" value="output &quot;Total cost of the job is $&quot;,&lt;div&gt;total_cost&lt;/div&gt;" style="text;html=1;align=center;verticalAlign=middle;resizable=0;points=[];autosize=1;strokeColor=none;fillColor=none;" vertex="1" parent="1">
          <mxGeometry x="130" y="710" width="200" height="40" as="geometry" />
        </mxCell>
        <mxCell id="fo3bom-SzsWDAHnflCSK-39" style="edgeStyle=orthogonalEdgeStyle;rounded=0;orthogonalLoop=1;jettySize=auto;html=1;" edge="1" parent="1" source="fo3bom-SzsWDAHnflCSK-16">
          <mxGeometry relative="1" as="geometry">
            <mxPoint x="225" y="430" as="targetPoint" />
          </mxGeometry>
        </mxCell>
        <mxCell id="fo3bom-SzsWDAHnflCSK-40" value="" style="rounded=0;whiteSpace=wrap;html=1;sketch=1;curveFitting=1;jiggle=2;fillColor=#e1d5e7;strokeColor=#9673a6;" vertex="1" parent="1">
          <mxGeometry x="130" y="520" width="190" height="60" as="geometry" />
        </mxCell>
        <mxCell id="fo3bom-SzsWDAHnflCSK-41" value="material_cost = 1.2 *&amp;nbsp;&lt;div&gt;wholesale_cost&lt;/div&gt;" style="text;html=1;align=center;verticalAlign=middle;resizable=0;points=[];autosize=1;strokeColor=none;fillColor=none;" vertex="1" parent="1">
          <mxGeometry x="155" y="530" width="140" height="40" as="geometry" />
        </mxCell>
        <mxCell id="fo3bom-SzsWDAHnflCSK-42" value="" style="rounded=0;whiteSpace=wrap;html=1;sketch=1;curveFitting=1;jiggle=2;fillColor=#e1d5e7;strokeColor=#9673a6;" vertex="1" parent="1">
          <mxGeometry x="130" y="610" width="190" height="60" as="geometry" />
        </mxCell>
        <mxCell id="fo3bom-SzsWDAHnflCSK-43" value="total_cost = wholesale_cost +&lt;div&gt;labor_cost&lt;/div&gt;" style="text;html=1;align=center;verticalAlign=middle;resizable=0;points=[];autosize=1;strokeColor=none;fillColor=none;" vertex="1" parent="1">
          <mxGeometry x="135" y="620" width="180" height="40" as="geometry" />
        </mxCell>
      </root>
    </mxGraphModel>
  </diagram>
</mxfile>
